<svg width="51" height="49" viewBox="0 0 51 49" fill="none" xmlns="http://www.w3.org/2000/svg">
<path d="M36.7204 48.6707C33.0588 48.6715 29.9522 47.3179 27.4459 44.68C25.2525 42.372 24.0384 39.5865 23.7883 36.4001C23.5261 33.0588 24.3328 29.9918 26.2858 27.2676C28.4607 24.2336 31.418 22.4154 35.1271 21.9233C37.9764 21.5458 40.6812 22.0919 43.1505 23.5689C47.0129 25.8793 49.1595 29.3545 49.658 33.784C50.0404 37.1826 49.2547 40.3626 47.2525 43.1779C44.9502 46.416 41.7985 48.2375 37.8489 48.6642C37.477 48.7046 37.0971 48.6707 36.7204 48.6707ZM36.6945 39.7124C41.4822 39.7156 45.1857 35.883 45.2253 31.3002C45.2664 26.4633 41.279 22.7994 36.8317 22.759C32.1634 22.7171 28.2663 26.5174 28.2477 31.2438C28.2291 35.8427 32.0859 39.7011 36.6945 39.7124Z" fill="#A658A1"/>
<path d="M20.9905 36.7722C21.1833 37.1586 21.1801 37.5143 21.247 37.8515C21.6342 39.7844 22.2522 41.6164 23.5251 43.166C23.6824 43.358 23.6389 43.4951 23.5082 43.6597C22.7789 44.5793 21.9577 45.4013 21.026 46.1201C19.1553 47.5641 17.0393 48.3885 14.7024 48.6281C12.3726 48.8661 10.1042 48.5837 7.98426 47.5447C3.82659 45.5078 1.32827 42.1415 0.540944 37.6281C-0.0543921 34.2158 0.248923 30.8317 1.96959 27.7179C3.89193 24.2387 6.80811 22.2171 10.8141 21.8775C12.196 21.7605 13.5795 21.7315 14.9468 22.0372C18.5317 22.8383 21.1276 25.7851 21.4729 29.4402C21.8335 33.2599 19.5982 36.8359 16.031 38.146C12.1557 39.5698 7.87375 38.0048 5.79814 34.4046C5.61663 34.0899 5.46981 33.7673 4.99306 33.8197C4.66716 33.8552 4.56552 33.9673 4.63005 34.2787C4.84463 35.3185 5.24717 36.2801 5.83605 37.1594C6.62177 38.3331 7.59383 39.3278 8.77482 40.1103C10.1776 41.0404 11.7217 41.5704 13.4036 41.547C15.3864 41.5196 17.162 40.8524 18.714 39.5988C19.5861 38.8946 20.2653 38.0419 20.8042 37.0674C20.8485 36.9876 20.9018 36.9126 20.9913 36.7714L20.9905 36.7722ZM13.0059 22.7761C9.54682 22.664 6.49915 25.7391 6.5048 29.2385C6.51044 32.6766 9.37661 35.7404 12.9373 35.7558C16.5489 35.7711 19.4836 32.8622 19.5175 29.3079C19.5506 25.7891 16.5674 22.6745 13.0059 22.7761Z" fill="#A658A1"/>
<path d="M39.9144 0.396731V0.389764L39.7319 0.392203C39.2016 0.399292 38.6539 0.622517 38.1324 0.971214C37.6092 1.32105 37.0996 1.80553 36.6418 2.35608M39.9144 0.396731L36.6418 2.35608M39.9144 0.396731C40.7423 0.420247 41.3988 0.580452 41.954 0.835121C42.5478 1.10748 43.0163 1.48362 43.4486 1.89745L43.4487 1.89755C44.7846 3.17847 45.7407 4.73224 46.5867 6.33509C48.3314 9.64057 49.6251 13.1263 50.7392 16.6763L50.7392 16.6764C50.8424 17.0056 50.8418 17.323 50.7302 17.5898C50.6173 17.8597 50.3977 18.0603 50.0999 18.1609M39.9144 0.396731V0.572266V0.573879L33.4946 15.8786M36.6418 2.35608C36.6418 2.35608 36.6418 2.35608 36.6418 2.35608L36.7793 2.47041L36.6418 2.35608ZM33.4946 15.8786C33.5633 15.6146 33.6296 15.3518 33.6957 15.0897C33.8134 14.6231 33.9304 14.1589 34.0593 13.6954M33.4946 15.8786L33.3205 15.8333L33.4946 15.8786L33.4946 15.8786ZM34.0593 13.6954C34.7944 11.0553 35.6576 8.47234 36.9238 6.04504M34.0593 13.6954C34.0593 13.6954 34.0593 13.6953 34.0593 13.6953L33.8858 13.6471M34.0593 13.6954L33.8858 13.6471M36.9238 6.04504C37.4763 4.98643 38.0918 3.99732 38.9794 3.21017C39.3625 2.87054 39.6969 2.69913 40.0274 2.66325C40.3569 2.62748 40.7126 2.72314 41.1452 2.98016L41.1453 2.9802C41.7284 3.32639 42.188 3.81982 42.6174 4.36245M36.9238 6.04504L36.7641 5.96176M36.9238 6.04504C36.9238 6.04505 36.9238 6.04507 36.9238 6.04508L36.7641 5.96176M42.6174 4.36245C44.1157 6.25776 45.1707 8.41098 46.1273 10.6319M42.6174 4.36245C42.6174 4.36247 42.6174 4.36248 42.6174 4.3625L42.7586 4.25077M42.6174 4.36245L42.7586 4.25077M46.1273 10.6319C47.0715 12.8243 47.8801 15.0681 48.5884 17.3491L48.5884 17.3492C48.6971 17.6985 48.8986 17.9642 49.172 18.1106C49.4463 18.2575 49.7706 18.2722 50.0999 18.1609M46.1273 10.6319L46.2927 10.5607M46.1273 10.6319C46.1273 10.6319 46.1273 10.6319 46.1273 10.6319L46.2927 10.5607M50.0999 18.1609L50.0422 17.9903M50.0999 18.1609C50.0999 18.1609 50.0998 18.1609 50.0998 18.1609L50.0422 17.9903M50.0422 17.9903C49.4622 18.1863 48.9556 17.9233 48.7604 17.2957M50.0422 17.9903C50.5464 17.8201 50.7545 17.3272 50.5674 16.7302C49.4549 13.1857 48.165 9.71125 46.4274 6.41915C45.5844 4.8219 44.639 3.28839 43.3241 2.02753L48.7604 17.2957M48.7604 17.2957C48.0505 15.0096 47.2398 12.7597 46.2927 10.5607M48.7604 17.2957L38.8599 3.07542C39.6561 2.36957 40.3329 2.28809 41.2372 2.82535C41.8487 3.18836 42.3246 3.70222 42.7586 4.25077M46.2927 10.5607C45.3344 8.33584 44.272 6.16504 42.7586 4.25077M36.7641 5.96176C35.4895 8.40522 34.6224 11.0019 33.8858 13.6471M36.7641 5.96176L31.4932 15.4347C31.3714 15.9897 31.6521 16.4431 32.1394 16.5576C32.7274 16.6956 33.1655 16.4285 33.3204 15.8332C33.3883 15.5721 33.4543 15.3105 33.5202 15.049C33.6384 14.5807 33.7565 14.1124 33.8858 13.6471" fill="#A658A1" stroke="#A658A1" stroke-width="0.360156"/>
<path d="M17.5765 17.3C17.6112 17.6051 17.7616 17.8519 17.9917 18.0128C18.2191 18.1719 18.5128 18.2394 18.8281 18.2142L18.8283 18.2142C19.1281 18.1899 19.3817 18.0826 19.5542 17.8515C19.6942 17.6639 19.7657 17.4141 19.7857 17.1096H19.8223L19.7922 16.9034C19.7864 16.8639 19.7799 16.8131 19.7724 16.7542C19.7508 16.5843 19.7205 16.3467 19.6734 16.118L19.6733 16.1177C19.2251 13.9555 18.4553 11.9073 17.4845 9.93817L17.4845 9.93814C16.9192 8.79214 16.244 7.69881 15.2886 6.79797L15.2886 6.79791C14.2765 5.8445 13.0346 5.52863 11.9554 6.04277C11.2042 6.40008 10.6487 6.98203 10.2178 7.65373M17.5765 17.3L17.7554 17.2796M17.5765 17.3C17.5765 17.3 17.5765 17.3 17.5765 17.3L17.7554 17.2796M17.5765 17.3C17.4313 16.029 17.0423 14.8201 16.5989 13.6123C16.0249 12.051 15.3671 10.5418 14.3882 9.20624M17.7554 17.2796C17.6077 15.9865 17.2125 14.7611 16.768 13.5503C16.192 11.9837 15.5273 10.4558 14.5335 9.09979M17.7554 17.2796L13.6598 8.15999C14.0172 8.41491 14.281 8.75533 14.5335 9.09979M14.3882 9.20624L14.5335 9.09979M14.3882 9.20624L14.5335 9.09979M14.3882 9.20624C14.1357 8.86179 13.8867 8.54302 13.5552 8.3066C13.3124 8.13343 13.1349 8.07711 12.9898 8.09108C12.8471 8.10483 12.691 8.19111 12.5012 8.41021L12.5012 8.41022C11.9314 9.06774 11.5197 9.82949 11.1667 10.6354L11.1667 10.6355C10.4088 12.3618 9.88248 14.167 9.43263 16.0051L9.43262 16.0051C9.32376 16.4498 9.02695 16.755 8.6584 16.8647C8.29086 16.9741 7.87447 16.8825 7.53814 16.5823C7.22318 16.3012 7.16805 15.9345 7.2471 15.5956C7.88655 12.8375 8.65024 10.096 10.2178 7.65373M10.2178 7.65373L10.3693 7.751M10.2178 7.65373L10.3693 7.751M10.3693 7.751C10.788 7.09839 11.3204 6.54419 12.0327 6.20539L7.65805 16.4479C7.40313 16.2204 7.35473 15.9268 7.42249 15.6364C8.06139 12.8807 8.81968 10.1654 10.3693 7.751Z" fill="#A658A1" stroke="#A658A1" stroke-width="0.360156"/>
<path d="M35.5685 36.6747C32.1377 36.7635 28.9859 33.9158 29.0198 30.0913C29.0529 26.4201 31.9642 23.5596 35.7064 23.5822C39.1905 23.6031 42.16 26.5129 42.1366 30.2252C42.1132 33.8029 39.0292 36.803 35.5677 36.6747H35.5685Z" fill="#A658A1"/>
<path d="M12.0022 32.9633C9.31349 32.969 7.19754 30.8635 7.1798 28.1651C7.16205 25.5394 9.33446 23.3435 11.9538 23.3379C14.7159 23.3323 16.8754 25.4522 16.8488 28.1917C16.823 30.8449 14.7175 33.019 12.0022 32.9633Z" fill="#A658A1"/>
</svg>
